<svg xmlns="http://www.w3.org/2000/svg" viewBox="0 0 16 16"><path d="M3.3 12.5c.4-.1.9-.1 1.3-.3.2-.4.2-1.1.2-1.5 0-.1 0-6.6-.1-6.9-.2-.2-1.2-.2-1.4-.2V3c1.6 0 3.2-.1 4.8-.1H9c1.5 0 3.2.7 3.2 2.5 0 1.2-.9 1.6-1.9 2.1 1.3.3 2.4 1.2 2.4 2.6 0 2.3-2.1 3.1-4.1 3.1H6.8c-1.2 0-2.4.1-3.6.2l.1-.9zm4.3-5.3C9 7.2 10 6.8 10 5.3 10 4 8.8 3.5 7.7 3.5c-.3 0-.6 0-.9.1 0 .7.1 1.4.1 2v1.6h.7zm.3 5.2c1.5 0 2.5-.6 2.5-2.2 0-.4-.1-.9-.3-1.2-.6-1-1.5-1.1-2.6-1.1-.2 0-.5 0-.7.1v2.1c0 .5-.1 1.7.1 2.1.4.1.7.2 1 .2z"/></svg>